<svg
  fill="none"
  xmlns="http://www.w3.org/2000/svg"
  width="32"
  height="32"
  viewBox="0 0 32 32"
>
  <g id="S" transform="translate(0 8)">
    <rect
      id="Rectangle"
      width="32"
      height="32"
      rx="8"
      transform="translate(0 -8)"
      fill="#5c60f5"
      opacity="0.88"
    ></rect>
    <path
      id="Samarth"
      d="M13.355-41.52c-.326-1.8-1.783-4.092-5.63-4.092-2.957,0-5.522,2.035-5.522,4.936,0,2.273,1.587,4.005,4.2,4.5l2.109.39c1.022.195,1.652.758,1.652,1.537,0,.953-.826,1.6-2.174,1.6a2.861,2.861,0,0,1-3.2-2.641l-3.152.758c.217,2.165,2.043,4.915,6.3,4.915,3.674,0,5.7-2.447,5.7-4.85,0-2.187-1.522-4.07-4.457-4.612l-2.065-.39c-1.065-.195-1.522-.736-1.522-1.472A1.89,1.89,0,0,1,7.7-42.581a2.331,2.331,0,0,1,2.565,1.927Z"
      transform="translate(8.362 45.612)"
      fill="#fff"
    ></path>
  </g>
</svg>